<?xml version="1.0" encoding="UTF-8" standalone="no"?>
<svg
   width="1024"
   height="1024"
   viewBox="0 0 1024 1024"
   fill="none"
   version="1.1"
   id="svg20"
   sodipodi:docname="icon.svg"
   inkscape:version="1.2.1 (9c6d41e4, 2022-07-14)"
   xmlns:inkscape="http://www.inkscape.org/namespaces/inkscape"
   xmlns:sodipodi="http://sodipodi.sourceforge.net/DTD/sodipodi-0.dtd"
   xmlns="http://www.w3.org/2000/svg"
   xmlns:svg="http://www.w3.org/2000/svg">
  <defs
     id="defs24" />
  <sodipodi:namedview
     id="namedview22"
     pagecolor="#ffffff"
     bordercolor="#999999"
     borderopacity="1"
     inkscape:showpageshadow="0"
     inkscape:pageopacity="0"
     inkscape:pagecheckerboard="0"
     inkscape:deskcolor="#d1d1d1"
     showgrid="false"
     inkscape:zoom="0.35762086"
     inkscape:cx="265.64446"
     inkscape:cy="397.06857"
     inkscape:window-width="1920"
     inkscape:window-height="976"
     inkscape:window-x="0"
     inkscape:window-y="25"
     inkscape:window-maximized="1"
     inkscape:current-layer="svg20" />
  <path
     d="m 512.00001,103.88452 c -227.77857,0 -412.950175,182.99387 -412.950175,408.09196 0,225.09809 185.171605,408.09171 412.950175,408.09171 227.77856,0 412.95029,-182.99362 412.95029,-408.09171 0,-225.09809 -185.35484,-408.09196 -412.95029,-408.09196 z m 243.0723,361.84812 c 0,-7.73662 -1.09267,-13.13491 -1.09267,-13.13491 -56.8079,59.19925 -104.14803,34.00764 -117.62146,24.8314 -3.2768,-11.87599 -8.37511,-23.03157 -14.92992,-33.10773 3.82374,-14.21553 22.5774,-62.258 102.32652,-62.4375 0,0 -4.00565,-5.75849 -10.37734,-12.05549 8.92085,-62.97721 55.35142,-78.09265 69.91752,-81.1514 43.88021,52.00113 72.64858,116.59867 80.11294,187.49199 -9.83161,6.65841 -54.80448,32.92823 -108.5175,-10.25566 z m 9.28588,46.42334 c -8.55703,3.41895 -13.10961,8.81724 -15.47566,14.75524 -3.278,-6.29821 -8.19441,-11.51579 -15.65876,-14.39503 7.46435,-3.23825 12.56267,-8.81725 15.84067,-15.29495 2.36605,5.938 7.10054,11.33628 15.29375,14.75524 z m -70.64516,175.4365 c -8.55823,-3.59846 -15.65877,-2.87925 -21.48593,-0.36021 2.18533,-6.6572 2.54915,-13.85411 -0.90956,-21.05223 7.64748,2.87925 15.11183,2.51904 22.03046,0.3602 -2.54795,5.938 -3.2768,12.95541 0.18312,21.23295 z m 44.42594,92.66598 c -52.61915,43.36459 -117.98529,71.79445 -189.72311,79.17207 -6.73672,-9.71716 -33.32096,-54.15997 10.37733,-107.24172 7.82939,0 13.29273,-1.07942 13.29273,-1.07942 -59.904,-56.13929 -34.41363,-102.92284 -25.12655,-116.23725 12.01694,-3.23945 23.30503,-8.27753 33.50166,-14.75524 14.38419,3.77917 62.99889,22.31236 63.18081,101.12302 0,0 5.82595,-3.95746 12.19885,-10.25566 63.72653,8.81724 79.02148,54.69967 82.11637,69.0947 z M 333.01806,667.97987 c 6.73671,2.15883 14.02036,2.51904 21.30402,-0.89992 -2.91419,7.55712 -2.54916,14.93474 -0.36503,21.77265 -6.00787,-2.51904 -13.10961,-3.23945 -21.48473,0.1795 3.64183,-8.45703 2.91298,-15.47444 0.36383,-21.23294 z m 39.32883,47.50276 c 5.64404,5.21758 10.19663,8.45703 10.19663,8.45703 -2.18534,-86.18827 55.35141,-98.42447 67.73218,-100.04359 9.46778,5.03808 19.66441,8.99674 30.22486,11.69528 8.0113,14.39503 26.03731,60.09796 -28.58646,114.43863 0,0 6.91983,1.26012 16.02379,1.43962 40.78532,53.26005 14.38419,98.24377 7.64627,107.96093 -70.46325,-7.19812 -134.91863,-34.90756 -186.99204,-77.01203 3.09489,-14.21553 18.02481,-60.09796 83.75477,-66.75637 z m -42.0599,-379.48236 c 8.55823,3.59845 15.65877,2.87925 21.48593,0.36021 -2.18534,6.6572 -2.54916,13.85411 0.90955,21.05223 -7.64747,-2.87925 -15.11183,-2.51904 -22.03046,-0.36021 2.54916,-5.93799 3.2768,-12.9554 -0.18311,-21.23173 z m -44.42594,-92.66598 c 52.62035,-43.36459 117.98528,-71.79445 189.72311,-79.17207 6.73792,9.71716 33.32096,54.16117 -10.37734,107.24172 -7.82938,0 -13.29272,1.07941 -13.29272,1.07941 59.904,56.1393 34.41362,102.92285 25.12775,116.23726 -12.01814,3.23945 -23.30624,8.27753 -33.50287,14.75524 -14.38419,-3.77917 -62.99889,-22.31236 -63.1808,-101.12302 0,0 -5.82596,3.95867 -12.19885,10.25566 -63.72653,-8.81603 -79.02148,-54.69967 -82.11637,-69.0947 z m 403.4813,110.11976 c -6.73671,-2.15884 -14.01916,-2.51904 -21.30281,0.89991 2.91298,-7.55712 2.54916,-14.93474 0.36382,-21.77265 6.00907,2.51904 13.10961,3.23946 21.48593,-0.1795 -3.64183,8.45704 -2.91298,15.47445 -0.36382,21.23174 z m -39.32762,-47.50276 c -5.64525,-5.21879 -10.19663,-8.45704 -10.19663,-8.45704 2.36725,93.5659 -65.54805,99.8641 -69.91752,100.2231 -8.37511,-4.13816 -17.29716,-7.37641 -26.58304,-9.71595 -8.01129,-14.39503 -26.03731,-60.09796 28.58526,-114.43863 0,0 -6.91862,-1.25892 -16.02258,-1.43962 -40.78532,-53.26005 -14.38419,-98.24377 -7.64748,-107.96093 69.73561,7.01742 133.46335,34.36785 185.17294,75.57241 -3.45992,15.11544 -18.93678,59.37875 -83.57407,66.03716 z M 511.27116,730.41737 c 3.27801,7.37761 8.92205,12.41569 15.47686,15.65394 -6.00787,2.33954 -11.47121,7.01742 -14.92992,15.11424 -3.45992,-8.45703 -8.92205,-12.9554 -14.92992,-15.29374 6.37169,-3.23945 11.65191,-8.09683 14.5661,-15.47444 z m 0.72885,-149.52569 c -38.59998,0 -69.91752,-30.9489 -69.91752,-69.0947 0,-38.14702 31.31754,-69.09591 69.91752,-69.09591 38.59998,0 69.91751,30.94889 69.91751,69.09591 0,38.1458 -31.31753,69.0947 -69.91751,69.0947 z m 0.72884,-287.7163 c -3.278,-7.37641 -8.92205,-12.41449 -15.47685,-15.65395 6.00787,-2.33953 11.47121,-6.83791 14.92992,-15.11424 3.45991,8.45704 8.92205,12.95541 14.92992,15.29375 -6.37169,3.23945 -11.65192,8.09803 -14.5661,15.47444 z m -275.84632,-0.359 c 15.29374,3.41775 60.0847,18.7127 66.82142,82.58982 -5.28023,5.57779 -8.55703,10.07616 -8.55703,10.07616 94.67904,-2.33954 101.05194,64.77583 101.41696,69.0947 -4.18876,8.45704 -7.64747,17.27428 -10.01472,26.63002 -11.65312,6.83792 -60.08591,29.86948 -117.80337,-26.99023 0,0 -1.27458,6.83791 -1.45649,15.83466 -50.98195,37.9663 -94.31642,16.73457 -107.24412,8.81724 6.73671,-69.99462 34.41242,-134.05124 76.65423,-185.87287 z m 51.8915,219.87931 c -7.46556,3.23945 -12.56388,8.81724 -15.84068,15.29494 -2.36725,-5.93799 -6.91863,-11.33628 -15.29495,-14.75523 8.55823,-3.41775 13.10961,-8.81604 15.47686,-14.75404 3.2768,6.2982 8.19321,11.51579 15.65877,14.39503 z m -128.18191,35.08826 c 13.1096,-8.27753 55.89714,-28.79006 106.33216,11.69529 0,7.73662 1.09267,13.1349 1.09267,13.1349 64.27346,-66.93586 116.34688,-26.09031 120.89946,-22.13165 3.09489,9.35695 7.10054,18.17299 12.01694,26.45053 -3.64182,13.67461 -22.03166,62.43749 -102.50963,62.7965 0,0 4.00565,5.75849 10.37854,12.05549 -8.92205,63.15791 -55.71524,78.09265 -70.09942,81.3309 C 195.91409,681.65449 167.69265,617.77857 160.4102,547.96345 Z m 626.8904,182.99242 c -15.29495,-3.41775 -60.08592,-18.7127 -66.82263,-82.58982 5.28022,-5.57779 8.55823,-10.07616 8.55823,-10.07616 -94.68025,2.33954 -101.05314,-64.59633 -101.41696,-69.0947 4.18756,-8.27754 7.46436,-17.09357 9.8316,-26.27102 14.5661,-7.91613 60.81356,-25.73011 115.80115,28.25035 0,0 1.27458,-6.83791 1.45649,-15.83465 53.89493,-40.30464 99.41354,-14.21433 109.24635,-7.55712 -7.10174,68.9152 -34.77745,131.8924 -76.47232,182.99362 z"
     fill="#ee7130"
     id="path2"
     style="stroke-width:12.0471;fill-opacity:1" />
  <path
     d="M 512.36383,88.769921 C 518.73672,72.215937 531.66442,56.921473 555.6983,47.385021 532.39206,38.028432 519.64748,22.733967 512.91077,6 c -9.28708,17.993487 -23.30625,33.467814 -44.24524,42.644541 21.12091,7.737224 34.95816,22.491859 43.88021,40.12538 z"
     fill="#ee7130"
     id="path4"
     style="stroke-width:12.0471;fill-opacity:1" />
  <path
     d="m 814.97631,212.9251 c 16.38641,-7.19691 36.41465,-8.99674 60.26662,1.07942 -9.64969,-22.85207 -8.01129,-42.64418 -0.72764,-59.19804 -19.3006,6.11749 -40.4215,7.37762 -61.72431,-0.72042 9.46778,20.33303 8.55823,40.30585 2.36724,59.01855 z"
     fill="#ee7130"
     id="path6"
     style="stroke-width:12.0471;fill-opacity:1" />
  <path
     d="m 980.84745,468.97209 c -7.82938,20.87274 -22.7593,34.54735 -40.60341,43.3646 16.75144,6.29699 32.22829,19.0729 41.87799,42.82368 9.46778,-23.03157 24.94467,-35.62677 41.87797,-42.28398 -18.2079,-9.17624 -33.86668,-23.03156 -43.15255,-43.7248 z"
     fill="#ee7130"
     id="path8"
     style="stroke-width:12.0471;fill-opacity:1" />
  <path
     d="m 814.61129,811.38806 c 7.28365,16.19366 9.10396,35.98697 -1.09267,59.55825 23.12433,-9.53645 43.15256,-7.91733 59.904,-0.71921 -6.19098,-19.07411 -7.46556,-39.94564 0.72764,-60.99787 -20.57397,9.35574 -40.78532,8.45703 -59.72088,2.33833 z"
     fill="#ee7130"
     id="path10"
     style="stroke-width:12.0471;fill-opacity:1" />
  <path
     d="m 511.63619,935.18243 c -6.3729,16.55507 -19.3006,31.84881 -43.33448,41.38526 23.30624,9.35695 36.05082,24.65191 42.78754,41.38531 9.28587,-17.99353 23.30624,-33.46798 44.24523,-42.64422 -21.1209,-7.73783 -34.95936,-22.49186 -43.8802,-40.12635 z"
     fill="#ee7130"
     id="path12"
     style="stroke-width:12.0471;fill-opacity:1" />
  <path
     d="m 208.84179,811.02785 c -16.38641,7.19691 -36.41464,8.99675 -60.26662,-1.07941 9.6497,22.85086 8.0113,42.64417 0.72765,59.19804 19.30059,-6.1175 40.42149,-7.37762 61.72431,0.71921 -9.46779,-20.33182 -8.55823,-40.30464 -2.36725,-59.01854 z"
     fill="#ee7130"
     id="path14"
     style="stroke-width:12.0471;fill-opacity:1" />
  <path
     d="M 41.877625,468.79139 C 32.409721,491.82295 16.933105,504.41936 0,511.07656 c 18.207684,9.17625 33.866331,23.03157 43.152204,43.7236 7.829263,-20.87153 22.759545,-34.54735 40.603167,-43.36339 -16.751074,-6.2982 -32.22769,-19.0729 -41.877746,-42.82489 z"
     fill="#ee7130"
     id="path16"
     style="stroke-width:12.0471;fill-opacity:1" />
  <path
     d="m 209.38873,212.3854 c -7.28365,-16.19487 -9.10396,-35.98698 1.09267,-59.55825 -23.12433,9.53645 -43.15257,7.91732 -59.904,0.71921 6.19098,19.0729 7.46556,39.94563 -0.72765,60.99787 20.57397,-9.35695 40.78532,-8.45704 59.72089,-2.33954 z"
     fill="#ee7130"
     id="path18"
     style="stroke-width:12.0471;fill-opacity:1" />
</svg>
